PathFileType	4	(X/Y/Z)	/Users/niels/Desktop/University/Third Semester/Perception and Action/Exam/Gymnastics Motion Tracking/Code for Gym Tracking/Analyzed Data/Webcam_Backflip/id9_2_trajectory_Sports2D/id9_2_trajectory_Sports2D_px_person00.trc
DataRate	CameraRate	NumFrames	NumMarkers	Units	OrigDataRate	OrigDataStartFrame	OrigNumFrames
29.714285714285715	29.714285714285715	10	22	m	29.714285714285715	26	105
Frame#	Time	Hip			RHip			RKnee			RAnkle			RBigToe			RSmallToe			RHeel			LHip			LKnee			LAnkle			LBigToe			LSmallToe			LHeel			Neck			Head			Nose			RShoulder			RElbow			RWrist			LShoulder			LElbow			LWrist		
		X1	Y1	Z1	X2	Y2	Z2	X3	Y3	Z3	X4	Y4	Z4	X5	Y5	Z5	X6	Y6	Z6	X7	Y7	Z7	X8	Y8	Z8	X9	Y9	Z9	X10	Y10	Z10	X11	Y11	Z11	X12	Y12	Z12	X13	Y13	Z13	X14	Y14	Z14	X15	Y15	Z15	X16	Y16	Z16	X17	Y17	Z17	X18	Y18	Z18	X19	Y19	Z19	X20	Y20	Z20	X21	Y21	Z21	X22	Y22	Z22
26	0.875	1.2007605082936894	-0.5550049794512236	0.0	1.2119023929792123	-0.5540934907513214	0.0	1.272690203626862	-0.7816501268146322	0.0	1.2514413308767758	-1.014950268143139	0.0	1.3523077705633595	-1.0515228387694062	0.0	1.328776985192684	-1.0596995561735931	0.0	1.2234145117023767	-1.038142238116527	0.0	1.1847941598584517	-0.5509016129517302	0.0	1.2069250223714822	-0.7804461492380881	0.0	1.21214892643772	-0.97649525091357	0.0	1.3261622513312605	-1.0023508177011715	0.0	1.3147605923711272	-0.9936331520486205	0.0	1.1787160836378607	-1.0037176891966963	0.0	1.2908831965331433	-0.26399020314541	0.0	1.3598009429842333	-0.14015422372332154	0.0	1.3610182093321288	-0.22225798347723166	0.0	1.2624972558064953	-0.2826349174731246	0.0	1.1458646921304305	-0.38003278445916877	0.0	1.0269696804412265	-0.4608988281042658	0.0	1.2711282525273997	-0.28752354927797136	0.0	1.1483538035361849	-0.4168853840180058	0.0	1.0906275458811632	-0.5280205695276254	0.0
27	0.9086538461538461	1.2026603080967067	-0.5498281690725907	0.0	1.216567254336369	-0.5493608096166381	0.0	1.277053061409529	-0.7799453434748836	0.0	1.2601181388861256	-1.0173780179900767	0.0	1.3635883111823146	-1.052890532488808	0.0	1.339736265182127	-1.060638671074969	0.0	1.2340684873957488	-1.040586918236082	0.0	1.1819885205863758	-0.5457636926892386	0.0	1.2017252578137636	-0.7771151999350393	0.0	1.2132838866356335	-0.9759532030618251	0.0	1.3314323712460436	-0.9976719179086827	0.0	1.3208680006470455	-0.9881815433388181	0.0	1.1763124113856247	-1.003056722418465	0.0	1.3001299439862666	-0.262844971520659	0.0	1.3761191961098254	-0.1413260660054714	0.0	1.3729376562267896	-0.22330262960696257	0.0	1.2733698655489094	-0.27892060585949136	0.0	1.1486693399523653	-0.36064404350245527	0.0	1.0206485502382836	-0.4237384412269309	0.0	1.2809648092237491	-0.2844911427307091	0.0	1.1509358226168307	-0.4053238368352152	0.0	1.0933709841901513	-0.5109733843366224	0.0
28	0.9423076923076923	1.2038509666768857	-0.5448791084040944	0.0	1.219704663062211	-0.5445965427522126	0.0	1.2791182072617875	-0.777417003434707	0.0	1.26480456628279	-1.0173842861875115	0.0	1.3685362923783986	-1.0531415713253116	0.0	1.3448194954174848	-1.0605945025257462	0.0	1.2409145819442358	-1.0410887168646725	0.0	1.1791003888117895	-0.540373999049196	0.0	1.1939900815248414	-0.771761852276319	0.0	1.2148640905152386	-0.9749785159222006	0.0	1.3339626199832173	-0.9935923652724469	0.0	1.3248851984705607	-0.9824461102788782	0.0	1.171239426510704	-1.0022756995244502	0.0	1.308327868708698	-0.2619383707845663	0.0	1.3913469411747261	-0.14319490224039347	0.0	1.3838105600237118	-0.2250669976827936	0.0	1.2832076267157682	-0.2759148180311341	0.0	1.1521453867239189	-0.34320749837525766	0.0	1.019248132590282	-0.3896565804741435	0.0	1.2892458270630824	-0.28217640519274406	0.0	1.1533398969985007	-0.3940477769783093	0.0	1.0957051876832904	-0.4943729914457738	0.0
29	0.9759615384615384	1.2044807671892115	-0.5401305658443072	0.0	1.2209455260027289	-0.5399211114069213	0.0	1.279021573921052	-0.7745872614379377	0.0	1.2673303573040924	-1.0160524995639146	0.0	1.3696226401951868	-1.0528869955767322	0.0	1.3462586243579842	-1.0602765152800144	0.0	1.2454696664429425	-1.0406051672667955	0.0	1.1766328882305799	-0.5348979116908029	0.0	1.1851130779081367	-0.7649941751860029	0.0	1.2192344305905376	-0.9740561783281833	0.0	1.3347316084755396	-0.9908191407861737	0.0	1.3266772558117692	-0.9774024641809225	0.0	1.165496380327805	-1.001879410068611	0.0	1.316035643674995	-0.2616771293561401	0.0	1.4054482188899655	-0.14591757164516883	0.0	1.3939757185294017	-0.22780759627880343	0.0	1.2918873852186283	-0.27388226555966655	0.0	1.1553680060770977	-0.32852931279030895	0.0	1.0205134430697096	-0.360243220480681	0.0	1.2967339416246122	-0.28077666662439954	0.0	1.156254486517516	-0.38391022182310447	0.0	1.0966695169616907	-0.4791633200510547	0.0
30	1.0096153846153846	1.2045416706048107	-0.5360027643275614	0.0	1.2200651461758623	-0.5359623226478625	0.0	1.2773188050364288	-0.77218471556588	0.0	1.2686825861929696	-1.0143793276822957	0.0	1.3688130928870605	-1.0527349950608385	0.0	1.3457777447353572	-1.0602683815087173	0.0	1.2484154800429486	-1.0399357904443758	0.0	1.174717998163516	-0.5299857858105311	0.0	1.1768872982600291	-0.7579901708572687	0.0	1.2271863230554327	-0.973846761862315	0.0	1.3344193822646926	-0.9900991032925839	0.0	1.3263458082844606	-0.9745383172590738	0.0	1.1614379478889487	-1.0023759041459284	0.0	1.3235779661558944	-0.26273392738780915	0.0	1.4183363258868897	-0.1498333848112875	0.0	1.4036511312250475	-0.2319302696390709	0.0	1.2993749358951745	-0.2734098184371666	0.0	1.1577130484324716	-0.31778371403590083	0.0	1.0222157579573963	-0.3374817225126062	0.0	1.3038653334041648	-0.2807472762158394	0.0	1.1597104697473812	-0.3758925767075656	0.0	1.0961384434073076	-0.4666023553835575	0.0
31	1.0432692307692306	1.2040573239579024	-0.533498189202241	0.0	1.2172583166612785	-0.533832801269057	0.0	1.2751452146573028	-0.7709974836771347	0.0	1.2690955487508127	-1.0132014016841888	0.0	1.3672874632132863	-1.0530843845797977	0.0	1.3444755772852888	-1.0608595030344463	0.0	1.2497890548932333	-1.0396917601572355	0.0	1.173208500901044	-0.5268393463944718	0.0	1.1711143725308113	-0.7523240344813144	0.0	1.2364676502902345	-0.9746453970233102	0.0	1.3333890030058033	-0.9915593608160821	0.0	1.3240478063676457	-0.9747343005615193	0.0	1.1605065945861415	-1.003720045576135	0.0	1.331009319857362	-0.2658952800260834	0.0	1.4299027721202588	-0.15537973754112344	0.0	1.4128220771417335	-0.23786562254521826	0.0	1.305702713758507	-0.27532030570269356	0.0	1.1588981624527142	-0.31260375335728185	0.0	1.0225130790594932	-0.32401294726258867	0.0	1.3107944101225872	-0.28291836166810674	0.0	1.1630427226059161	-0.3712923304581082	0.0	1.0942864402773644	-0.45835205655908906	0.0
32	1.0769230769230769	1.2032136946225755	-0.5339557716979078	0.0	1.2132442522978195	-0.5348697890791476	0.0	1.2739973677670762	-0.7717445028825172	0.0	1.2684322073401684	-1.013210071811936	0.0	1.3655024752284382	-1.0541059480084616	0.0	1.3428909012448025	-1.062110444838078	0.0	1.249329895709166	-1.0403016069752489	0.0	1.1719725918719994	-0.5269867839091678	0.0	1.1699328251792485	-0.7495485665808956	0.0	1.2438767990435602	-0.9763540514490581	0.0	1.331984316534407	-0.994749076644172	0.0	1.3197478863331864	-0.9778323573606105	0.0	1.162616965671849	-1.0055156125596167	0.0	1.3380933763140948	-0.27180621617081346	0.0	1.4398393741877318	-0.16285481050834402	0.0	1.4212195858811767	-0.24586220813987775	0.0	1.3108380074924475	-0.28043038036482315	0.0	1.1590200918945537	-0.3148601729043757	0.0	1.0206550712352545	-0.32295048817145156	0.0	1.3172875137951852	-0.28822429175012093	0.0	1.1655199847425737	-0.3715992917449031	0.0	1.0912910566047163	-0.4561556489017854	0.0
33	1.1105769230769231	1.2023376993569648	-0.5385484941190737	0.0	1.2089485816568932	-0.5401423471708662	0.0	1.2752971630493686	-0.7748025722752214	0.0	1.2665720057880896	-1.0147814005924298	0.0	1.363631530196053	-1.0558002240404862	0.0	1.3412596383756796	-1.064023577155109	0.0	1.2468224764601337	-1.04190854766395	0.0	1.1713241972972999	-0.5317057023280953	0.0	1.1760228018425716	-0.7506197812749854	0.0	1.247645660531353	-0.9788296903394796	0.0	1.3308077065380226	-0.9991999828057126	0.0	1.313208166683509	-0.9831709214173538	0.0	1.1666767536796534	-1.007571701971681	0.0	1.3442524293965457	-0.28072757507472346	0.0	1.447406385673532	-0.17215503072872607	0.0	1.4282921728264455	-0.25578407363908673	0.0	1.3144477735362095	-0.28930603846566283	0.0	1.1585007382535737	-0.3262660232011579	0.0	1.0177949127031105	-0.3372941418467482	0.0	1.322672083267159	-0.29717226853530954	0.0	1.1670620680445125	-0.37822208750533537	0.0	1.0876448311981077	-0.46150280710262576	0.0
34	1.1442307692307692	1.2018495045286972	-0.5479418684341598	0.0	1.2050733485347591	-0.5500905742772034	0.0	1.2799843668155513	-0.7800058405026503	0.0	1.2636409627127854	-1.0177961534395736	0.0	1.3619931526415854	-1.058046078258461	0.0	1.3397555856424523	-1.066616208423956	0.0	1.2423488765350164	-1.0443459555722943	0.0	1.1723592831306295	-0.5415598751906541	0.0	1.191900313158127	-0.7557158027819183	0.0	1.2474566946420877	-0.9820874520822391	0.0	1.330691389404017	-1.0047139144934816	0.0	1.3043509081487326	-0.990114801279955	0.0	1.1713602621914216	-1.0100453332681927	0.0	1.3485353296657048	-0.29230522780821977	0.0	1.451384637201962	-0.18264253624959526	0.0	1.4331344446991334	-0.26698266188977454	0.0	1.3157981874764144	-0.30200854006887434	0.0	1.1581413424051166	-0.347871757038902	0.0	1.0173495591934536	-0.36900328942545035	0.0	1.3259681774642227	-0.3094475880758872	0.0	1.1686409608151729	-0.3922085658162635	0.0	1.08491078300955	-0.4754237875661956	0.0
35	1.1778846153846154	1.202212198329463	-0.5620938451874236	0.0	1.2020134446528636	-0.5644190365647445	0.0	1.288240601121716	-0.7867743295880351	0.0	1.2600146256248737	-1.0218552347858476	0.0	1.360953597334102	-1.060718082165136	0.0	1.3384786510058764	-1.0699222141521607	0.0	1.2363989651853955	-1.047399274892218	0.0	1.176645832890778	-0.5562705772300468	0.0	1.2179953513551387	-0.7644611373483371	0.0	1.2437982568421406	-0.9862841423122999	0.0	1.332464729647662	-1.0113003067756887	0.0	1.294002072473163	-0.9981875935281487	0.0	1.1756426429889657	-1.0132978817648293	0.0	1.3497168646676285	-0.30547298056347405	0.0	1.4502038332933096	-0.19314806160627185	0.0	1.4345074044824742	-0.2782278619351993	0.0	1.3139207913779705	-0.3178757132978658	0.0	1.1593044551180696	-0.37938329147523603	0.0	1.0246078854262308	-0.41766349333265024	0.0	1.326215109013723	-0.32397073946195865	0.0	1.172193571151243	-0.4136932057053978	0.0	1.086535764039406	-0.4981179851450114	0.0
